<svg width="1440" height="30" viewBox="0 0 1440 30" fill="none" xmlns="http://www.w3.org/2000/svg">
<g clip-path="url(#clip0)">
<rect width="1440" height="30" fill="#FFD000"/>
<path d="M0.000120234 0.000122162L1441 0.000120163L1441 20.3322C1441 20.3322 1299.54 4.28601 1194.83 12.6661C1160.44 15.418 1120.37 13.0377 1085.75 12.6661C1053.83 12.3235 1036.35 23.8483 1004.84 20.3321C869.571 5.2346 790.713 15.8395 653.773 20.3321C571.445 23.033 503.635 13.9594 457.317 13.9594C411 13.9594 323.534 12.6661 309.215 12.6661C309.215 12.6661 198.923 9.58449 152.106 11.373C105.289 13.1615 0.000121342 12.6661 0.000121342 12.6661L0.000120234 0.000122162Z" fill="#fff"/>
</g>
<defs>
<clipPath id="clip0">
<rect width="1440" height="30" fill="#fff"/>
</clipPath>
</defs>
</svg>